<?xml version="1.0" standalone="no"?>
<!DOCTYPE svg PUBLIC "-//W3C//DTD SVG 20010904//EN"
 "http://www.w3.org/TR/2001/REC-SVG-20010904/DTD/svg10.dtd">
<svg version="1.0" xmlns="http://www.w3.org/2000/svg"
 width="128.000000pt" height="142.000000pt" viewBox="0 0 128.000000 142.000000"
 preserveAspectRatio="xMidYMid meet">

<g transform="translate(0.000000,142.000000) scale(0.100000,-0.100000)"
fill="#000000" stroke="none">
<path d="M0 710 l0 -710 640 0 640 0 0 710 0 710 -640 0 -640 0 0 -710z m943
254 c67 -23 72 -33 45 -88 -24 -50 -30 -53 -68 -31 -34 19 -105 19 -124 -1
-34 -33 -17 -54 89 -107 39 -19 86 -52 105 -72 33 -34 35 -41 35 -100 0 -75
-19 -107 -86 -145 -64 -36 -181 -35 -262 2 -31 15 -60 34 -63 42 -5 13 41 106
53 106 2 0 23 -11 46 -24 56 -32 102 -41 137 -26 34 14 46 41 31 69 -6 10 -45
36 -86 56 -124 62 -165 130 -131 219 39 101 154 143 279 100z m-293 -49 l0
-54 -67 -3 -68 -3 -3 -228 -2 -228 -63 3 -62 3 -3 228 -2 227 -65 0 -65 0 0
55 0 55 200 0 200 0 0 -55z"/>
</g>
</svg>
