<?xml version="1.0" standalone="no"?>
<!DOCTYPE svg PUBLIC "-//W3C//DTD SVG 20010904//EN"
 "http://www.w3.org/TR/2001/REC-SVG-20010904/DTD/svg10.dtd">
<svg version="1.0" xmlns="http://www.w3.org/2000/svg"
 width="138.000000pt" height="138.000000pt" viewBox="0 0 138.000000 138.000000"
 preserveAspectRatio="xMidYMid meet">

<g transform="translate(0.000000,138.000000) scale(0.100000,-0.100000)"
fill="#000000" stroke="none">
<path d="M779 922 c-93 -60 -107 -177 -29 -247 12 -11 56 -38 98 -60 63 -33
78 -45 80 -67 7 -60 -80 -76 -165 -29 l-53 29 -30 -50 c-17 -27 -28 -54 -24
-60 11 -17 106 -57 151 -64 141 -21 250 43 261 154 8 85 -30 130 -161 192 -73
34 -94 58 -77 89 19 36 71 35 160 -3 12 -5 22 6 38 39 12 25 22 49 22 53 0 19
-80 45 -150 49 -70 4 -78 3 -121 -25z"/>
<path d="M300 885 l0 -55 65 0 65 0 0 -225 0 -225 65 0 65 0 0 225 0 225 65 0
65 0 0 55 0 55 -195 0 -195 0 0 -55z"/>
</g>
</svg>
