<?xml version="1.0" standalone="no"?>
<!DOCTYPE svg PUBLIC "-//W3C//DTD SVG 20010904//EN"
 "http://www.w3.org/TR/2001/REC-SVG-20010904/DTD/svg10.dtd">
<svg version="1.0" xmlns="http://www.w3.org/2000/svg"
 width="2008.000000pt" height="596.000000pt" viewBox="0 0 2008.000000 596.000000"
 preserveAspectRatio="xMidYMid meet">

<g transform="translate(0.000000,596.000000) scale(0.100000,-0.100000)"
fill="#000000" stroke="none">
<path d="M3008 4750 c-19 -5 -24 -13 -26 -50 -2 -27 -10 -50 -19 -57 -13 -10
-221 -13 -959 -13 l-942 0 -31 -36 -32 -35 2 -230 1 -230 30 -35 30 -34 322 0
c237 0 325 -3 334 -12 9 -9 12 -276 12 -1139 0 -942 2 -1128 14 -1138 9 -8
101 -11 317 -9 l304 3 5 1138 c4 997 7 1139 20 1147 23 15 563 13 578 -2 9 -9
12 -276 12 -1138 0 -862 3 -1129 12 -1138 9 -9 88 -12 295 -12 l283 0 10 26
c7 17 10 210 10 511 -1 471 -1 485 19 517 12 18 21 49 21 67 0 30 11 45 83
115 107 105 164 134 262 134 57 0 78 -4 98 -20 14 -11 32 -20 41 -20 8 0 47
-33 85 -72 61 -63 71 -78 71 -109 0 -21 9 -47 20 -62 19 -24 20 -40 20 -545 0
-428 2 -522 14 -531 9 -8 96 -11 297 -9 l283 3 8 40 c7 32 5 44 -12 67 -20 27
-20 40 -20 646 0 611 0 620 -21 646 -11 14 -22 45 -24 68 -4 38 -14 52 -112
150 -59 59 -115 108 -123 108 -9 0 -31 11 -50 25 -23 17 -41 23 -57 18 -17 -4
-34 2 -56 18 -25 18 -45 24 -89 24 -42 0 -62 5 -78 20 -18 16 -39 20 -114 22
-80 3 -95 0 -120 -19 -21 -15 -45 -21 -87 -22 -39 -1 -64 -7 -77 -19 -10 -9
-26 -17 -36 -17 -10 0 -57 -38 -106 -85 -49 -47 -95 -85 -103 -85 -38 0 -38
10 -37 702 0 531 -2 677 -12 690 -12 15 -43 18 -280 20 -147 2 -277 1 -290 -2z"/>
<path d="M7965 4750 l-270 -5 -3 -1494 c-1 -1105 1 -1497 9 -1508 10 -11 65
-13 298 -11 l286 3 5 305 c4 271 7 309 23 333 30 45 75 31 100 -31 11 -28 24
-42 42 -46 17 -4 31 -18 41 -41 9 -23 23 -37 40 -41 18 -5 31 -19 45 -51 16
-37 27 -48 71 -68 41 -18 91 -62 223 -194 l170 -171 360 0 c372 0 385 1 385
40 0 21 -45 61 -92 82 -37 17 -96 83 -84 95 3 4 12 1 18 -5 7 -7 21 -12 33
-12 12 0 25 -4 30 -9 13 -13 230 -121 242 -121 6 0 16 -7 23 -15 7 -8 29 -15
50 -15 22 0 48 -8 63 -20 18 -14 40 -20 80 -20 39 0 61 -6 80 -20 24 -19 40
-20 345 -20 306 0 320 1 337 20 14 16 31 20 80 20 49 0 66 4 80 20 13 14 31
20 60 20 29 0 47 6 60 20 10 11 28 20 40 20 11 0 38 18 60 40 21 22 49 40 60
40 26 0 165 139 165 165 0 9 9 28 20 42 11 14 20 33 20 43 0 9 9 25 20 35 11
10 20 25 20 33 0 7 7 26 15 40 8 15 19 40 25 55 6 16 16 27 23 24 9 -3 13
-167 15 -757 2 -588 5 -756 15 -762 14 -9 548 -11 571 -2 14 5 16 60 16 513 0
381 3 510 12 519 23 23 55 13 92 -28 22 -25 45 -40 59 -40 13 0 32 -9 42 -20
13 -14 31 -20 60 -20 29 0 47 -6 60 -20 17 -19 31 -20 260 -20 229 0 243 1
260 20 12 14 31 20 57 20 25 0 50 8 65 20 14 11 32 20 41 20 8 0 34 18 58 40
24 22 52 40 62 40 34 0 142 122 186 211 59 119 89 128 131 42 11 -23 43 -65
71 -95 28 -29 54 -65 57 -80 5 -19 16 -30 34 -34 15 -4 55 -33 90 -66 34 -32
69 -58 76 -58 8 0 26 -9 40 -20 14 -11 40 -20 60 -20 19 0 45 -9 60 -20 24
-19 40 -20 262 -20 222 0 238 1 262 20 15 11 41 20 61 20 27 0 45 9 78 40 24
22 52 40 63 40 11 0 38 18 61 40 65 62 100 51 100 -33 0 -92 -16 -87 285 -87
251 0 265 1 275 19 5 11 10 70 10 131 0 97 3 115 20 137 28 35 27 114 -1 152
-15 20 -19 39 -17 72 3 37 7 45 26 47 33 5 52 -15 52 -55 0 -26 10 -47 40 -83
22 -26 40 -55 40 -64 0 -22 179 -196 201 -196 10 0 37 -18 61 -40 24 -22 50
-40 59 -40 9 0 28 -9 42 -20 14 -11 32 -20 40 -20 8 0 26 -9 40 -20 14 -11 40
-20 60 -20 19 0 45 -9 60 -20 24 -19 40 -20 285 -20 246 0 260 1 277 20 13 14
31 20 60 20 29 0 47 6 60 20 13 14 31 20 61 20 36 0 47 5 73 35 37 43 42 92
11 120 -11 10 -20 28 -20 40 0 12 -9 30 -20 40 -11 10 -20 27 -20 37 0 11 -9
31 -20 45 -11 14 -20 33 -20 42 -1 9 -23 40 -50 70 l-50 55 -24 -24 c-19 -17
-32 -21 -54 -17 -22 4 -38 0 -63 -19 -30 -22 -43 -24 -129 -24 -84 0 -99 3
-115 20 -10 11 -28 20 -40 20 -12 0 -30 9 -40 20 -10 11 -27 20 -37 20 -27 0
-116 86 -123 120 -3 16 -12 34 -20 40 -7 6 -16 23 -20 37 -3 15 -15 38 -26 51
-28 36 -28 194 1 237 11 17 20 45 20 64 0 29 13 47 92 127 50 52 99 94 108 94
10 0 29 9 43 20 22 18 40 20 165 20 127 0 140 -2 157 -20 16 -18 29 -20 84
-18 63 3 66 4 76 33 6 17 18 41 28 55 9 13 17 31 17 39 0 7 18 33 40 57 22 24
40 51 40 60 0 9 9 27 20 41 26 34 25 72 -3 114 -15 22 -33 35 -56 40 -19 4
-38 14 -43 23 -5 9 -19 16 -32 16 -13 0 -35 11 -49 24 -23 22 -33 24 -102 21
-69 -3 -78 -1 -102 21 -26 24 -31 24 -160 23 -116 -1 -137 -4 -158 -21 -17
-13 -43 -20 -83 -22 -43 -1 -66 -8 -86 -24 -20 -15 -36 -20 -53 -16 -17 5 -34
0 -53 -15 -16 -11 -36 -21 -43 -21 -8 0 -26 -9 -40 -20 -14 -11 -33 -20 -43
-20 -24 0 -263 -238 -281 -280 -8 -19 -30 -51 -48 -70 -18 -19 -35 -47 -39
-63 -8 -32 -42 -70 -59 -64 -8 2 -13 43 -15 126 -2 110 -1 125 18 148 25 32
25 39 0 70 -17 22 -20 41 -20 117 0 140 19 131 -276 133 -268 2 -286 -1 -321
-53 -15 -24 -15 -27 1 -56 16 -26 16 -32 4 -44 -13 -13 -22 -11 -74 16 -32 17
-72 44 -89 60 -16 15 -41 31 -55 35 -14 4 -33 14 -43 23 -11 10 -39 16 -75 17
-39 1 -68 9 -92 23 -31 19 -50 22 -153 22 -109 0 -122 -2 -163 -26 -33 -19
-51 -24 -74 -19 -25 6 -57 -6 -184 -69 -131 -65 -162 -85 -210 -135 -31 -33
-56 -67 -56 -77 0 -9 -16 -34 -35 -56 -20 -21 -42 -55 -50 -76 -16 -38 -48
-67 -65 -57 -4 3 -11 18 -15 34 -3 16 -12 35 -20 41 -8 6 -16 24 -20 39 -7 34
-214 241 -240 241 -10 0 -38 18 -62 41 -37 34 -50 40 -73 36 -20 -4 -37 1 -61
19 -26 19 -41 24 -66 19 -24 -4 -37 0 -58 19 -25 23 -32 24 -160 24 -128 1
-136 0 -164 -23 -24 -21 -35 -24 -78 -19 -44 6 -53 3 -78 -20 -15 -14 -38 -26
-49 -26 -12 0 -29 -9 -39 -20 -9 -11 -27 -20 -40 -20 -14 0 -44 -21 -82 -60
-33 -33 -67 -60 -76 -60 -23 0 -30 24 -14 47 18 23 20 137 3 151 -20 16 -564
14 -577 -2 -7 -8 -12 -144 -13 -381 -2 -283 -6 -369 -15 -372 -7 -3 -18 8 -23
24 -12 32 -39 90 -52 113 -4 8 -16 32 -26 52 -26 56 -177 208 -206 208 -16 0
-36 14 -59 40 -23 27 -42 40 -60 40 -17 0 -36 13 -60 40 -20 24 -43 40 -56 40
-11 0 -29 9 -38 20 -10 11 -27 20 -40 20 -12 0 -34 11 -49 25 -22 20 -34 24
-60 19 -25 -4 -37 -1 -53 15 -12 12 -29 21 -40 21 -10 0 -30 9 -44 20 -14 11
-32 20 -40 20 -8 0 -26 9 -40 20 -14 11 -32 20 -40 20 -8 0 -26 9 -40 20 -14
11 -32 20 -41 20 -9 0 -34 16 -56 36 -22 20 -55 44 -73 53 -17 9 -34 25 -36
36 -2 11 -12 31 -22 44 -26 32 -26 119 0 152 10 13 22 38 28 54 7 21 17 31 35
33 14 2 42 21 64 43 l38 39 161 0 c149 0 163 -2 180 -20 13 -14 31 -20 60 -20
29 0 47 -6 60 -20 13 -14 31 -20 60 -20 29 0 47 -6 60 -20 10 -11 28 -20 40
-20 12 0 30 -9 40 -20 13 -15 31 -20 66 -20 48 0 48 1 59 39 5 21 17 44 25 51
8 7 15 21 15 31 0 11 18 39 40 63 22 24 40 52 40 63 0 11 9 28 20 38 11 10 20
28 20 40 0 12 9 30 20 40 11 10 20 28 20 40 0 13 7 28 15 35 23 19 18 33 -29
78 -28 27 -53 42 -70 42 -15 0 -30 8 -36 20 -6 12 -21 20 -37 20 -14 0 -36 11
-48 25 -19 19 -30 23 -57 18 -28 -4 -40 0 -62 20 -22 20 -34 24 -61 20 -25 -4
-38 0 -54 16 -18 18 -33 21 -100 21 -62 0 -83 4 -103 19 -22 18 -44 20 -206
22 -169 2 -183 1 -196 -17 -11 -15 -28 -19 -82 -20 -46 -2 -71 -7 -79 -17 -5
-8 -25 -18 -43 -22 -18 -4 -36 -13 -38 -20 -3 -7 -20 -16 -39 -19 -18 -4 -38
-13 -45 -21 -6 -7 -24 -16 -39 -20 -34 -7 -241 -214 -241 -240 0 -10 -18 -37
-40 -61 -22 -24 -40 -51 -40 -60 0 -9 -9 -27 -20 -41 -16 -21 -20 -41 -20
-100 0 -60 -4 -80 -20 -100 -16 -21 -20 -41 -20 -105 0 -65 4 -85 20 -105 16
-21 20 -41 20 -104 0 -77 1 -79 34 -110 19 -17 37 -43 41 -57 7 -32 302 -332
326 -332 9 0 28 -9 42 -20 14 -11 32 -20 40 -20 8 0 26 -9 40 -20 14 -11 32
-20 40 -20 8 0 26 -9 40 -20 14 -11 32 -20 40 -20 8 0 26 -9 40 -20 14 -11 32
-20 40 -20 8 0 26 -9 40 -20 14 -11 32 -20 40 -20 8 0 26 -9 40 -20 14 -11 32
-20 40 -20 8 0 26 -9 40 -20 14 -11 33 -20 42 -20 20 0 171 -143 190 -180 7
-14 13 -54 13 -88 l1 -64 -67 -71 c-41 -44 -78 -75 -95 -78 -16 -4 -37 -16
-48 -28 -19 -20 -30 -21 -193 -21 -158 0 -176 2 -199 20 -14 11 -40 20 -60 20
-19 0 -45 9 -60 20 -14 11 -32 20 -40 20 -8 0 -26 9 -40 20 -14 11 -32 20 -40
20 -8 0 -26 9 -40 20 -14 11 -33 20 -42 20 -9 0 -44 27 -78 59 -111 106 -136
99 -212 -57 -32 -64 -73 -134 -91 -155 -19 -20 -34 -44 -34 -53 0 -9 -18 -36
-40 -60 -22 -24 -40 -52 -40 -62 0 -24 -31 -52 -56 -52 -26 0 -584 559 -584
585 0 12 150 170 406 426 291 292 405 412 402 425 -8 42 -35 44 -400 42 l-348
-3 -303 -302 c-316 -317 -336 -333 -357 -277 -6 16 -10 356 -10 899 0 854 0
875 -19 885 -11 5 -23 9 -28 8 -4 -1 -129 -5 -278 -8z m4840 -1710 c10 -11 28
-20 40 -20 12 0 30 -9 40 -20 10 -11 28 -20 39 -20 26 0 111 -84 121 -120 4
-14 15 -33 24 -44 13 -14 17 -46 19 -162 l4 -144 -36 -73 c-40 -84 -138 -187
-178 -187 -13 0 -31 -9 -41 -20 -15 -18 -29 -20 -155 -20 -126 0 -141 2 -157
20 -10 11 -28 20 -40 20 -14 0 -53 33 -113 94 l-92 93 0 58 c0 42 -5 64 -20
82 -11 14 -20 40 -20 58 0 18 9 44 20 58 12 16 20 40 20 65 0 23 5 44 11 48 6
3 19 25 29 48 24 54 95 126 124 126 13 0 31 9 41 20 10 11 28 20 40 20 12 0
30 9 40 20 16 18 31 20 120 20 89 0 104 -2 120 -20z m2040 -31 c129 -66 215
-149 215 -207 0 -21 9 -48 20 -62 16 -21 20 -41 20 -127 0 -57 -4 -105 -10
-108 -5 -3 -28 -43 -49 -88 -41 -86 -61 -110 -99 -122 -12 -3 -43 -24 -68 -46
l-45 -39 -144 0 c-141 0 -146 1 -203 30 -74 37 -162 126 -202 205 -31 59 -31
62 -28 186 2 101 6 131 20 145 9 11 19 31 23 46 4 14 46 65 95 112 75 74 92
86 121 86 19 0 48 9 64 20 23 15 47 20 100 20 65 0 78 -4 170 -51z"/>
<path d="M5163 4618 c-9 -10 -25 -18 -36 -18 -10 0 -52 -32 -93 -72 -66 -63
-74 -76 -74 -108 0 -21 -8 -48 -19 -61 -12 -17 -20 -48 -24 -101 -5 -67 -3
-81 14 -102 10 -13 19 -32 19 -41 0 -26 139 -165 165 -165 12 0 30 -9 40 -20
16 -18 31 -20 146 -20 118 0 129 2 139 20 6 12 21 20 36 20 29 0 124 93 124
121 0 9 9 28 20 42 11 14 20 32 20 40 0 8 9 26 20 40 14 18 20 40 20 80 0 40
-5 60 -20 77 -11 13 -20 31 -20 40 0 10 -9 29 -20 43 -11 14 -20 32 -20 40 0
25 -53 77 -78 77 -16 0 -38 15 -62 41 l-37 40 -122 2 c-105 2 -125 0 -138 -15z"/>
<path d="M6720 3563 c-23 -19 -37 -23 -59 -18 -22 5 -35 1 -56 -19 -16 -15
-38 -26 -49 -26 -12 0 -29 -9 -39 -20 -9 -11 -28 -20 -41 -20 -16 0 -40 -18
-75 -56 -69 -75 -81 -70 -81 39 0 56 -4 88 -13 95 -7 7 -112 10 -287 10 -175
0 -280 -3 -287 -10 -9 -7 -13 -39 -13 -93 0 -69 -3 -85 -20 -100 -14 -12 -20
-31 -20 -57 0 -25 8 -50 20 -65 20 -25 20 -41 20 -668 0 -633 0 -642 -20 -660
-18 -16 -20 -29 -18 -89 l3 -71 315 0 315 0 3 549 c2 453 5 552 16 565 8 9 21
32 30 51 23 53 89 120 118 120 14 0 33 9 43 20 10 11 28 20 40 20 12 0 30 9
40 20 14 16 31 20 80 20 49 0 66 -4 80 -20 10 -11 28 -20 39 -20 26 0 151
-124 161 -160 4 -14 14 -32 22 -42 12 -14 14 -97 13 -546 0 -333 3 -539 9
-556 l11 -26 283 0 c207 0 286 3 295 12 9 9 12 177 12 694 0 649 -1 682 -19
705 -10 13 -22 35 -26 49 -4 14 -13 32 -20 40 -8 8 -16 27 -20 42 -9 37 -137
158 -167 158 -13 0 -31 9 -41 20 -9 11 -25 20 -35 20 -11 0 -29 9 -42 20 -13
11 -33 20 -46 20 -13 0 -27 8 -33 17 -7 13 -25 18 -76 20 -52 2 -72 7 -86 22
-16 17 -32 19 -134 19 -109 0 -117 -1 -145 -25z"/>
<path d="M17879 3564 c-20 -21 -29 -24 -79 -19 -48 4 -60 2 -75 -15 -10 -11
-28 -20 -40 -20 -12 0 -32 -11 -45 -25 -14 -15 -30 -23 -39 -20 -8 3 -26 -6
-42 -21 -16 -15 -32 -23 -39 -19 -16 10 -320 -293 -320 -318 0 -9 -18 -37 -40
-61 -31 -33 -40 -51 -40 -78 0 -20 -9 -46 -20 -61 -19 -24 -20 -40 -20 -290 0
-246 1 -266 19 -289 11 -13 21 -44 23 -69 3 -41 5 -44 33 -47 37 -5 45 -16 45
-67 0 -38 7 -47 147 -187 118 -118 153 -148 175 -148 17 0 31 -8 38 -20 7 -13
21 -20 40 -20 19 0 33 -7 40 -20 8 -16 21 -20 60 -20 39 0 52 -4 60 -20 10
-19 21 -20 299 -20 275 0 289 1 306 20 14 16 31 20 80 20 49 0 66 4 80 20 10
11 28 20 40 20 12 0 30 9 40 20 10 11 28 20 39 20 13 0 45 24 81 60 35 35 68
60 80 60 25 0 75 49 75 73 0 10 17 36 39 60 21 23 40 49 43 57 8 22 -10 50
-31 50 -10 0 -30 9 -44 20 -14 11 -32 20 -40 20 -8 0 -26 9 -40 20 -14 11 -32
20 -40 20 -8 0 -26 9 -40 21 -15 11 -37 22 -49 24 -13 3 -28 12 -34 20 -6 8
-21 15 -33 15 -11 0 -30 9 -41 20 -11 11 -24 20 -28 20 -5 0 -25 -18 -46 -40
-22 -24 -46 -40 -60 -40 -14 0 -37 -16 -60 -40 -22 -24 -46 -40 -60 -40 -13 0
-31 -9 -41 -20 -17 -18 -31 -20 -175 -20 -144 0 -158 2 -175 20 -10 11 -28 20
-39 20 -13 0 -49 28 -94 73 -60 61 -72 78 -72 106 0 18 -8 46 -17 62 -17 28
-17 29 12 59 l28 30 621 -1 621 0 12 23 c8 16 12 70 10 170 -2 124 -5 149 -20
166 -10 11 -20 39 -22 62 -2 23 -10 50 -18 59 -8 9 -18 27 -22 41 -4 14 -13
32 -20 40 -7 8 -16 26 -20 40 -4 14 -22 41 -40 60 -19 19 -37 47 -40 62 -8 32
-67 88 -93 88 -10 0 -36 18 -57 40 -21 22 -48 40 -60 40 -12 0 -39 18 -60 41
-35 35 -44 39 -71 34 -25 -4 -39 0 -62 20 -26 21 -37 24 -80 20 -43 -4 -55 -1
-79 19 -28 24 -35 24 -185 24 -152 0 -157 -1 -179 -24z m285 -403 c12 -12 31
-21 43 -21 11 0 28 -9 38 -20 10 -11 29 -20 42 -20 14 0 26 -7 29 -17 3 -10
21 -49 40 -88 19 -38 34 -76 34 -82 0 -10 -72 -13 -329 -13 -365 0 -341 -5
-341 68 0 31 9 45 73 108 70 70 74 73 110 67 31 -5 41 -2 60 18 20 22 30 24
101 22 64 -1 82 -5 100 -22z"/>
<path d="M4990 3518 c-17 -16 -30 -30 -31 -31 -6 -14 -8 -1589 -2 -1657 l8
-95 309 -3 c241 -2 311 1 318 10 12 19 10 1765 -2 1788 -9 17 -28 18 -290 18
l-280 0 -30 -30z"/>
</g>
</svg>
